<svg width="800" height="800" viewBox="0 0 800 800" fill="none" xmlns="http://www.w3.org/2000/svg">
<path d="M736.8 368.825L431.175 63.2C426.994 59.0048 422.027 55.6762 416.557 53.4049C411.087 51.1337 405.223 49.9645 399.3 49.9645C393.377 49.9645 387.513 51.1337 382.043 53.4049C376.573 55.6762 371.606 59.0048 367.425 63.2L303.95 126.675L384.45 207.175C393.943 203.945 404.152 203.446 413.914 205.735C423.677 208.024 432.6 213.01 439.667 220.124C446.734 227.238 451.66 236.193 453.885 245.971C456.11 255.748 455.543 265.954 452.25 275.425L529.75 352.925C541.334 348.945 553.933 349.055 565.446 353.237C576.959 357.418 586.691 365.419 593.022 375.905C599.352 386.391 601.898 398.73 600.236 410.866C598.573 423.001 592.802 434.201 583.884 442.598C574.967 450.995 563.441 456.083 551.227 457.014C539.014 457.944 526.85 454.662 516.763 447.713C506.676 440.764 499.275 430.569 495.792 418.825C492.31 407.082 492.957 394.499 497.625 383.175L425.25 310.8V501.225C436.214 506.657 444.985 515.681 450.104 526.795C455.222 537.908 456.378 550.44 453.38 562.302C450.382 574.165 443.41 584.642 433.625 591.988C423.841 599.335 411.835 603.108 399.607 602.678C387.379 602.248 375.667 597.642 366.423 589.626C357.179 581.611 350.959 570.67 348.801 558.627C346.643 546.583 348.676 534.163 354.563 523.437C360.449 512.71 369.832 504.324 381.15 499.675V307.5C374.602 304.814 368.651 300.858 363.638 295.862C358.626 290.865 354.652 284.926 351.945 278.387C349.237 271.848 347.851 264.838 347.865 257.761C347.878 250.683 349.292 243.679 352.025 237.15L272.775 157.85L63.2 367.5C59.001 371.681 55.6692 376.65 53.3957 382.122C51.1223 387.595 49.952 393.462 49.952 399.387C49.952 405.313 51.1223 411.18 53.3957 416.653C55.6692 422.125 59.001 427.094 63.2 431.275L368.825 736.8C373.006 740.995 377.973 744.324 383.443 746.595C388.913 748.866 394.777 750.035 400.7 750.035C406.623 750.035 412.487 748.866 417.957 746.595C423.427 744.324 428.394 740.995 432.575 736.8L736.8 432.5C740.999 428.319 744.331 423.35 746.604 417.878C748.878 412.405 750.048 406.538 750.048 400.612C750.048 394.687 748.878 388.82 746.604 383.347C744.331 377.875 740.999 372.906 736.8 368.725" fill="#858585"/>
<path d="M303.95 126.675L384.45 207.175C393.943 203.945 404.152 203.446 413.914 205.735C423.677 208.024 432.6 213.01 439.667 220.124C446.734 227.237 451.66 236.193 453.885 245.971C456.11 255.748 455.543 265.954 452.25 275.425L529.75 352.925C541.334 348.945 553.933 349.055 565.446 353.237C576.959 357.418 586.691 365.419 593.022 375.905C599.352 386.391 601.898 398.73 600.236 410.866C598.573 423.001 592.802 434.201 583.884 442.598C574.967 450.995 563.441 456.083 551.227 457.014C539.014 457.944 526.85 454.662 516.763 447.713C506.676 440.764 499.275 430.569 495.792 418.825C492.31 407.082 492.957 394.499 497.625 383.175L425.25 310.8V501.225C436.214 506.657 444.985 515.681 450.104 526.795C455.222 537.908 456.378 550.44 453.38 562.302C450.382 574.165 443.41 584.642 433.625 591.988C423.841 599.335 411.835 603.108 399.607 602.678C387.379 602.248 375.667 597.642 366.423 589.626C357.179 581.611 350.959 570.67 348.801 558.627C346.643 546.583 348.676 534.163 354.563 523.437C360.449 512.71 369.832 504.324 381.15 499.675V307.5C374.602 304.814 368.651 300.858 363.638 295.862C358.626 290.865 354.652 284.926 351.945 278.387C349.237 271.848 347.851 264.838 347.865 257.761C347.878 250.683 349.292 243.679 352.025 237.15L272.775 157.85" fill="white"/>
</svg>
