<svg width="800" height="228" viewBox="0 0 800 228" fill="none" xmlns="http://www.w3.org/2000/svg">
<path fill-rule="evenodd" clip-rule="evenodd" d="M744.865 94.4106C744.144 94.5549 743.424 96.1414 743.424 97.0062C743.279 102.773 743.135 118.058 743.135 128.44C743.135 128.728 743.567 129.304 744 129.304C746.162 129.449 751.354 129.593 755.823 129.593C762.023 129.593 765.628 128.728 767.648 127.864C772.838 125.268 775.289 119.644 775.289 113.443C775.289 99.4574 765.484 94.1219 750.921 94.1219C749.911 93.9789 747.029 93.9789 744.865 94.4106ZM782.067 158.864C782.067 144.589 771.54 136.658 752.507 136.658C751.642 136.658 745.586 136.514 744.144 136.802C743.711 136.947 743.135 137.236 743.135 137.669C743.135 147.905 742.991 164.199 743.424 170.543C743.711 173.283 745.731 177.176 748.182 178.33C750.776 179.772 756.689 180.059 760.726 180.059C772.117 180.059 782.067 173.716 782.067 158.864ZM715.451 86.4807C716.892 86.4807 721.218 86.9124 732.321 86.9124C742.846 86.9124 751.209 86.6251 761.447 86.6251C773.991 86.6251 791.294 91.0945 791.294 109.839C791.294 119.068 784.805 126.421 776.298 130.026C775.866 130.17 775.866 130.458 776.298 130.602C788.41 133.631 799.081 141.129 799.081 155.259C799.081 169.102 790.43 177.897 777.885 183.377C770.242 186.693 760.726 187.846 751.065 187.846C743.711 187.846 723.958 186.981 713 187.27C711.846 186.837 714.009 181.646 715.018 180.781C717.613 180.637 719.632 180.492 722.372 179.627C726.265 178.618 726.697 177.465 727.274 171.553C727.563 166.506 727.563 148.626 727.563 135.938C727.563 118.49 727.707 106.667 727.563 100.9C727.418 96.4301 725.832 94.988 722.66 94.1219C720.209 93.6902 716.171 93.1128 712.855 92.6811C712.133 91.9593 714.585 87.0568 715.451 86.4807ZM632.252 176.167C635.714 178.906 642.49 180.059 648.546 180.059C656.333 180.059 664.119 178.618 671.617 171.841C679.259 164.92 684.593 154.25 684.593 137.236C684.593 120.941 678.393 107.676 665.705 99.8905C658.496 95.4197 649.267 93.5458 638.597 93.5458C635.425 93.5458 632.396 93.6902 630.523 94.5549C630.09 94.8436 629.08 96.1414 629.08 96.8618C628.792 99.7461 628.792 121.951 628.792 134.929C628.792 148.338 628.792 167.082 629.08 169.245C629.08 171.409 630.09 174.725 632.252 176.167ZM599.521 86.4807C602.261 86.4807 612.786 86.9124 617.833 86.9124C626.918 86.9124 633.406 86.4807 650.564 86.4807C664.983 86.4807 677.095 90.3741 685.747 97.7266C696.272 106.811 701.752 119.356 701.752 134.64C701.752 156.413 691.803 168.958 681.853 176.167C671.905 183.521 658.927 187.846 640.472 187.846C630.667 187.846 613.797 187.557 599.81 187.413H599.665C598.945 186.116 600.819 181.07 601.972 180.925C605.721 180.492 606.73 180.348 608.606 179.627C611.633 178.474 612.21 176.887 612.643 171.553C613.075 161.604 612.931 149.636 612.931 136.082C612.931 126.421 613.075 107.532 612.786 101.476C612.355 96.4301 610.192 95.1323 605.866 94.2662C603.703 93.8345 600.819 93.2571 596.782 92.8254C596.205 91.8149 598.801 87.3455 599.521 86.4807Z" fill="#858585"/>
<path fill-rule="evenodd" clip-rule="evenodd" d="M425.052 181.79C421.448 181.357 418.852 180.781 415.679 179.339C415.247 179.05 414.526 177.609 414.526 177.032C414.237 171.985 414.237 157.566 414.237 147.905C414.237 140.118 412.941 133.342 409.623 128.584C405.73 123.104 400.107 119.932 392.897 119.932C386.553 119.932 378.045 124.259 370.98 130.315C370.836 130.458 369.683 131.468 369.827 129.882C369.827 128.295 370.116 125.123 370.26 122.961C370.404 120.941 369.251 119.932 369.251 119.932C364.636 122.239 351.659 125.268 346.901 125.699C343.44 126.421 342.576 129.737 346.18 130.891H346.325C350.217 132.044 352.812 133.342 354.831 134.64C356.273 135.793 356.128 137.38 356.128 138.677C356.273 149.492 356.273 166.073 355.841 175.158C355.697 178.762 354.688 180.059 352.092 180.636L352.379 180.492C350.361 180.925 348.775 181.357 346.323 181.645C345.459 182.51 345.459 187.125 346.323 188.134C347.91 188.134 356.273 187.701 363.195 187.701C372.711 187.701 377.614 188.134 380.065 188.134C381.074 186.981 381.363 182.655 380.785 181.645C378.045 181.501 376.027 181.214 374.153 180.636C371.558 180.059 370.836 178.762 370.692 175.734C370.404 168.091 370.404 151.943 370.404 140.984C370.404 137.956 371.269 136.514 372.134 135.649C375.45 132.766 380.785 130.746 385.544 130.746C390.157 130.746 393.186 132.188 395.493 134.064C398.665 136.658 399.674 140.407 400.107 143.147C400.827 149.347 400.54 161.604 400.54 172.273C400.54 178.041 400.107 179.483 397.944 180.203C396.935 180.636 394.339 181.214 391.311 181.501C390.302 182.51 390.59 186.981 391.311 187.99C395.493 187.99 400.396 187.557 407.605 187.557C416.544 187.557 422.313 187.99 424.619 187.99C425.34 187.125 425.63 182.943 425.052 181.79ZM464.993 126.71C457.351 126.71 452.592 132.622 452.592 141.849C452.592 151.221 456.773 162.035 468.598 162.035C470.616 162.035 474.365 161.171 476.095 159.152C478.835 156.557 480.71 151.366 480.71 145.887C480.71 133.919 474.797 126.71 464.993 126.71ZM463.983 190.441C461.1 190.441 459.08 191.306 457.784 192.028C451.726 195.92 448.988 199.669 448.988 204.14C448.988 208.321 450.573 211.637 454.035 214.521C458.215 218.126 463.983 219.857 471.336 219.857C486.044 219.857 492.533 211.925 492.533 204.14C492.533 198.66 489.793 195.055 484.17 193.037C480.132 191.306 472.779 190.441 463.983 190.441ZM464.993 227.931C456.197 227.931 449.852 226.056 444.374 221.875C439.038 217.837 436.731 211.781 436.731 207.6C436.731 206.447 437.02 203.274 439.616 200.391C441.201 198.66 444.661 195.344 452.881 189.721C453.169 189.577 453.313 189.432 453.313 189.144C453.313 188.855 453.024 188.566 452.737 188.423C445.959 185.828 443.941 181.645 443.363 179.339V179.05C443.22 178.185 442.932 177.32 444.23 176.454C445.239 175.734 446.681 174.869 448.266 173.86C450.717 172.418 453.313 170.831 454.899 169.533C455.188 169.245 455.188 168.957 455.188 168.669C455.188 168.38 454.899 168.091 454.611 167.948C444.518 164.631 439.471 157.133 439.471 145.887C439.471 138.533 442.787 131.9 448.699 127.719C452.737 124.546 462.829 120.654 469.463 120.654H469.896C476.672 120.797 480.421 122.239 485.755 124.114C488.64 125.123 491.38 125.555 495.129 125.555C500.752 125.555 503.203 123.826 505.221 121.807C505.365 122.095 505.654 122.816 505.798 124.69C505.943 126.566 505.365 129.304 503.923 131.324C502.77 132.909 500.176 134.064 497.58 134.064H496.858C494.263 133.775 493.109 133.486 493.109 133.486L492.533 133.775C492.389 134.064 492.533 134.351 492.677 134.784L492.822 135.073C493.109 136.371 493.687 140.263 493.687 141.273C493.687 153.096 488.928 158.286 483.881 162.18C478.979 165.784 473.356 168.091 467.011 168.669C466.867 168.669 466.291 168.669 464.993 168.813C464.271 168.813 463.262 168.957 463.118 168.957H462.974C461.82 169.245 458.937 170.687 458.937 173.138C458.937 175.301 460.235 177.896 466.434 178.329C467.732 178.474 469.03 178.474 470.472 178.618C478.69 179.194 488.928 179.916 493.687 181.501C500.319 183.952 504.501 189.864 504.501 196.93C504.501 207.6 496.858 217.55 484.17 223.749C477.97 226.489 471.77 227.931 464.993 227.931ZM547.181 127.43C544.153 127.43 541.413 128.151 539.395 129.593C533.772 133.053 530.887 139.975 530.887 150.068C530.887 168.957 540.404 182.223 553.958 182.223C557.996 182.223 561.167 181.069 563.907 178.762C568.088 175.301 570.252 168.38 570.252 158.719C570.252 139.975 560.878 127.43 547.181 127.43ZM549.777 189.144C525.264 189.144 516.468 171.12 516.468 154.25C516.468 142.427 521.227 133.342 530.743 126.853C537.521 122.672 545.595 120.365 552.804 120.365C571.548 120.365 584.671 133.775 584.671 153.096C584.671 166.217 579.48 176.599 569.53 182.943C564.772 186.115 556.555 189.144 549.777 189.144ZM292.83 127.43C289.801 127.43 287.063 128.151 285.043 129.593C279.42 133.053 276.536 139.975 276.536 150.068C276.536 168.957 286.052 182.223 299.606 182.223C303.644 182.223 306.816 181.069 309.556 178.762C313.736 175.301 315.9 168.38 315.9 158.719C315.9 139.975 306.671 127.43 292.83 127.43ZM295.426 189.144C270.913 189.144 262.117 171.12 262.117 154.25C262.117 142.427 266.875 133.342 276.391 126.853C283.169 122.672 291.243 120.365 298.453 120.365C317.198 120.365 330.319 133.775 330.319 153.096C330.319 166.217 325.128 176.599 315.179 182.943C310.565 186.115 302.346 189.144 295.426 189.144ZM130.616 187.701C130.327 187.27 130.039 185.972 130.183 184.385C130.183 183.232 130.472 182.51 130.616 182.223C133.643 181.79 135.23 181.357 136.959 180.925C139.844 180.203 140.997 178.618 141.142 175.013C141.575 166.362 141.575 149.923 141.43 138.533V138.244C141.43 136.947 141.43 135.36 139.844 134.207C137.537 132.766 134.797 131.468 131.192 130.458C129.894 130.026 129.03 129.304 129.174 128.439C129.174 127.575 130.039 126.566 131.914 126.277C136.672 125.844 149.071 122.816 153.974 120.654C154.263 120.941 154.696 121.807 154.696 122.961L154.551 124.546C154.407 126.132 154.263 128.008 154.263 129.882C154.263 130.458 154.84 130.891 155.416 130.891C155.705 130.891 155.993 130.746 156.282 130.602C165.51 123.393 173.873 120.797 178.198 120.797C185.264 120.797 190.743 124.114 194.925 131.035C195.212 131.468 195.501 131.611 195.934 131.611C196.223 131.611 196.655 131.468 196.799 131.179C205.306 124.69 213.813 120.797 219.436 120.797C232.846 120.797 240.777 130.746 240.777 147.616C240.777 152.375 240.777 158.575 240.633 164.199C240.633 169.245 240.489 173.86 240.489 177.176C240.489 177.896 241.498 180.203 243.084 180.636C245.102 181.645 247.842 182.079 251.447 182.655H251.591C251.88 183.664 251.303 187.413 250.727 188.134C249.861 188.134 248.563 188.134 247.122 187.99C244.382 187.846 240.489 187.701 236.163 187.701C227.223 187.701 222.609 187.846 218.139 188.134C217.851 186.981 217.707 183.521 218.139 182.655C220.734 182.223 222.032 181.79 223.618 181.357C226.503 180.492 227.223 179.194 227.367 175.445C227.367 172.707 227.944 149.347 227.079 143.723C226.214 137.956 221.888 131.179 212.371 131.179C208.766 131.179 203.144 132.622 197.664 136.802C197.376 137.091 197.088 137.811 197.088 138.244V138.389C197.664 141.416 197.664 144.878 197.664 150.212V159.584C197.664 166.073 197.519 172.129 197.664 176.743C197.664 179.916 199.539 180.636 201.125 181.214C201.99 181.357 202.566 181.501 203.288 181.645C204.586 181.934 205.884 182.223 207.902 182.655C208.19 183.232 208.19 185.106 207.757 186.692C207.613 187.557 207.324 187.99 207.181 188.134C202.279 187.99 197.232 187.846 189.878 187.846C187.716 187.846 183.966 187.99 180.793 187.99C178.198 187.99 175.747 188.134 174.306 188.134C174.161 187.846 173.873 186.837 173.873 185.25C173.873 183.952 174.161 182.943 174.45 182.655C175.171 182.51 175.747 182.367 176.468 182.367C178.198 182.079 179.64 181.79 181.082 181.501C183.533 180.781 184.398 179.483 184.543 176.311C184.976 169.102 185.407 148.483 184.398 143.291C182.669 134.928 177.911 130.746 170.268 130.746C165.799 130.746 160.174 132.909 155.56 136.371C154.84 136.947 154.263 138.389 154.263 139.687V148.194C154.263 158.575 154.263 171.553 154.407 177.176C154.551 178.905 155.127 180.925 158.445 181.645C159.165 181.79 160.319 182.079 161.761 182.223L164.356 182.655C164.645 183.521 164.501 186.981 163.923 188.134C162.481 188.134 160.752 187.99 158.732 187.99C155.705 187.846 151.811 187.701 147.486 187.701C142.439 187.701 138.835 187.846 135.95 187.99C133.932 187.701 132.346 187.701 130.616 187.701Z" fill="#858585"/>
<path fill-rule="evenodd" clip-rule="evenodd" d="M54.7709 222.308L48.8593 220.288C48.8593 220.288 49.5811 190.153 38.7669 187.99C31.5574 179.627 39.9203 -166.717 65.8738 186.837C65.8738 186.837 56.9348 191.306 55.3483 198.949C53.6175 206.447 54.7709 222.308 54.7709 222.308Z" fill="#858585"/>
<path fill-rule="evenodd" clip-rule="evenodd" d="M54.7709 222.308L48.8593 220.288C48.8593 220.288 49.5811 190.153 38.7669 187.99C31.5574 179.627 39.9203 -166.717 65.8738 186.837C65.8738 186.837 56.9348 191.306 55.3483 198.949C53.6175 206.447 54.7709 222.308 54.7709 222.308Z" fill="#858585"/>
<path fill-rule="evenodd" clip-rule="evenodd" d="M57.944 193.181C57.944 193.181 109.708 159.152 97.596 88.3545C85.9171 36.8793 58.3757 20.0091 55.3484 13.5201C52.0324 8.90623 48.8594 0.832031 48.8594 0.832031L51.0233 144.012C51.0233 144.156 46.5525 187.846 57.944 193.181Z" fill="#858585"/>
<path fill-rule="evenodd" clip-rule="evenodd" d="M57.944 193.181C57.944 193.181 109.708 159.152 97.596 88.3545C85.9171 36.8793 58.3757 20.0091 55.3484 13.5201C52.0324 8.90623 48.8594 0.832031 48.8594 0.832031L51.0233 144.012C51.0233 144.156 46.5525 187.846 57.944 193.181Z" fill="#858585"/>
<path fill-rule="evenodd" clip-rule="evenodd" d="M45.8324 195.055C45.8324 195.055 -2.75984 161.891 0.124482 103.495C2.8631 45.0978 37.1808 16.4044 43.8128 11.2132C48.1393 6.59933 48.2837 4.86847 48.5724 0.254639C51.5997 6.74368 51.0236 97.2948 51.4553 107.965C52.7531 149.059 49.1484 187.27 45.8324 195.055Z" fill="#858585"/>
<path fill-rule="evenodd" clip-rule="evenodd" d="M45.8324 195.055C45.8324 195.055 -2.75984 161.891 0.124482 103.495C2.8631 45.0978 37.1808 16.4044 43.8128 11.2132C48.1393 6.59933 48.2837 4.86847 48.5724 0.254639C51.5997 6.74368 51.0236 97.2948 51.4553 107.965C52.7531 149.059 49.1484 187.27 45.8324 195.055Z" fill="#858585"/>
</svg>
