<svg width="800" height="800" viewBox="0 0 800 800" fill="none" xmlns="http://www.w3.org/2000/svg">
<path d="M147.55 680.025L91.375 50H708.625L652.375 679.925L399.625 750L147.55 680.025Z" fill="#858585"/>
<path d="M400 696.45L604.25 639.825L652.3 101.525H400V696.45Z" fill="#858585"/>
<path d="M400 335.175H297.75L290.7 256.05H400V178.775H399.725H206.25L208.1 199.525L227.075 412.45H400V335.175Z" fill="white"/>
<path d="M400 535.85L399.65 535.95L313.6 512.725L308.1 451.1H266.275H230.525L241.35 572.4L399.65 616.35L400 616.25V535.85Z" fill="white"/>
<path d="M399.725 335.175V412.45H494.875L485.925 512.675L399.725 535.925V616.325L558.15 572.4L559.3 559.35L577.45 355.925L579.35 335.175H558.525H399.725Z" fill="white"/>
<path d="M399.725 178.775V226.775V255.875V256.05H586.125H586.375L587.925 238.7L591.45 199.525L593.3 178.775H399.725Z" fill="white"/>
</svg>
