<svg width="800" height="800" viewBox="0 0 800 800" fill="none" xmlns="http://www.w3.org/2000/svg">
<path d="M317.5 589C317.5 589 290.75 604.55 336.525 609.825C384.83 616.621 433.969 614.537 481.525 603.675C493.793 611.03 506.664 617.327 520 622.5C382.975 681.225 209.875 619.1 317.5 589.025" fill="#858585"/>
<path d="M300.65 512.35C300.65 512.35 270.65 534.55 316.475 539.3C378.882 546.723 442.09 543.689 503.5 530.325C511.802 538.066 521.604 544.022 532.3 547.825C366.625 596.275 182.075 551.65 300.65 512.3" fill="#858585"/>
<path d="M441.825 382.35C446.265 387.709 449.567 393.915 451.531 400.591C453.496 407.266 454.08 414.272 453.25 421.181C452.42 428.09 450.192 434.758 446.702 440.779C443.212 446.799 438.533 452.046 432.95 456.2C432.95 456.2 518.675 411.95 479.3 356.525C442.525 304.85 414.3 279.15 567 190.625C567 190.625 327.35 250.475 441.825 382.35Z" fill="#858585"/>
<path d="M623.05 645.675C623.05 645.675 642.85 661.975 601.25 674.6C522.15 698.55 272.05 705.8 202.55 675.55C177.55 664.675 224.4 649.6 239.15 646.45C247.051 644.52 255.168 643.612 263.3 643.75C235.525 624.175 83.775 682.175 186.225 698.75C465.625 744.05 695.525 678.375 623.05 645.675Z" fill="#858585"/>
<path d="M330.275 432.95C330.275 432.95 203.05 463.175 285.275 474.15C341.31 478.5 397.62 477.897 453.55 472.35C506.2 467.9 559.075 458.475 559.075 458.475C547.961 463.306 537.259 469.033 527.075 475.6C397.825 509.55 148.25 493.75 220 458.975C254.132 441.656 291.901 432.726 330.175 432.925" fill="#858585"/>
<path d="M558.5 560.525C689.825 492.275 629.1 426.7 586.725 435.525C581.627 436.469 576.611 437.815 571.725 439.55C574.507 435.599 578.421 432.584 582.95 430.9C666.8 401.425 731.275 517.85 555.875 563.95C556.971 562.98 557.87 561.809 558.525 560.5" fill="#858585"/>
<path d="M479.3 47.65C479.3 47.65 552.025 120.4 410.325 232.3C296.675 322.05 384.4 373.225 410.325 431.675C344 371.825 295.325 319.175 327.975 270.1C375.9 198.125 508.7 163.225 479.375 47.6" fill="#858585"/>
<path d="M343.175 745.45C469.225 753.525 662.825 740.975 667.4 681.325C667.4 681.325 658.575 703.825 563.225 721.9C457.787 740.02 350.179 741.707 244.225 726.9C244.225 726.9 260.35 740.225 343.2 745.55" fill="#858585"/>
</svg>
