<?xml version="1.0" encoding="UTF-8"?><svg id="Layer_2" xmlns="http://www.w3.org/2000/svg" width="69.66" height="42.66" xmlns:xlink="http://www.w3.org/1999/xlink" viewBox="0 0 69.66 42.66"><defs><clipPath id="clippath"><path d="m25.31,9.86l-6.63,3.83c-.25.14-.4.41-.4.69v7.66c0,.29.15.55.4.69l6.63,3.83c.25.14.55.14.8,0l6.63-3.83c.25-.14.4-.41.4-.69v-7.66c0-.29-.15-.55-.4-.69l-6.63-3.83c-.12-.07-.26-.11-.4-.11s-.28.04-.4.11" style="fill:#858585;"/></clipPath><clipPath id="clippath-1"><path d="m18.44,22.53c.06.08.14.15.24.21l5.69,3.29.95.54c.14.08.3.12.46.1.05,0,.11-.01.16-.03l7-12.81c-.05-.06-.12-.11-.19-.15l-4.34-2.51-2.3-1.32c-.07-.04-.14-.06-.21-.08l-7.46,12.76Z" style="fill:#858585;"/></clipPath><clipPath id="clippath-2"><path d="m25.63,9.75c-.11.01-.22.05-.32.1l-6.61,3.82,7.13,12.99c.1-.01.2-.05.29-.1l6.63-3.83c.2-.12.34-.32.39-.55l-7.27-12.42c-.05-.01-.11-.02-.16-.02-.02,0-.04,0-.07,0" style="fill:#858585;"/></clipPath></defs><g id="Layer_1-2"><g><path d="m34.43,42.66c-.23,0-.46-.06-.66-.18l-2.1-1.24c-.31-.18-.16-.24-.06-.27.42-.15.5-.18.95-.43.05-.03.11-.02.16.01l1.61.96c.06.03.14.03.19,0l6.29-3.63c.06-.03.1-.1.1-.17v-7.26c0-.07-.04-.14-.1-.17l-6.29-3.63c-.06-.03-.14-.03-.19,0l-6.29,3.63c-.06.03-.1.1-.1.17v7.26c0,.07.04.14.1.17l1.72,1c.94.47,1.51-.08,1.51-.64v-7.16c0-.1.08-.18.18-.18h.8c.1,0,.18.08.18.18v7.17c0,1.25-.68,1.96-1.86,1.96-.36,0-.65,0-1.45-.39l-1.65-.95c-.41-.24-.66-.68-.66-1.15v-7.26c0-.47.25-.91.66-1.15l6.3-3.63c.4-.23.93-.23,1.32,0l6.29,3.63c.41.23.66.67.66,1.15v7.26c0,.47-.25.91-.66,1.15l-6.29,3.63c-.2.12-.43.18-.66.18" style="fill:#858585;"/><path d="m36.37,37.66c-2.75,0-3.33-1.26-3.33-2.32,0-.1.08-.18.18-.18h.81c.09,0,.17.07.18.15.12.83.49,1.25,2.15,1.25,1.33,0,1.89-.3,1.89-1,0-.4-.16-.71-2.22-.91-1.72-.17-2.79-.55-2.79-1.93,0-1.27,1.07-2.02,2.86-2.02,2.01,0,3.01.7,3.14,2.2,0,.05-.01.1-.05.14-.03.04-.08.06-.13.06h-.82c-.09,0-.16-.06-.18-.14-.2-.87-.67-1.15-1.97-1.15-1.45,0-1.62.5-1.62.88,0,.46.2.59,2.15.85,1.93.26,2.85.62,2.85,1.98s-1.14,2.16-3.14,2.16m7.66-7.7h.21c.17,0,.21-.12.21-.19,0-.19-.13-.19-.2-.19h-.22v.38Zm-.26-.6h.47c.16,0,.48,0,.48.36,0,.25-.16.3-.26.33.19.01.2.14.23.31.01.11.03.3.07.36h-.29c0-.06-.05-.41-.05-.43-.02-.08-.05-.11-.14-.11h-.24v.54h-.26v-1.36Zm-.56.68c0,.56.46,1.02,1.01,1.02s1.02-.47,1.02-1.02-.46-1.01-1.02-1.01-1.01.44-1.01,1.01m2.23,0c0,.67-.55,1.21-1.21,1.21s-1.21-.54-1.21-1.21.56-1.21,1.21-1.21,1.21.53,1.21,1.21" style="fill:#858585;"/><path d="m14.95,14.26c0-.29-.15-.56-.4-.7l-6.67-3.84c-.11-.07-.24-.1-.37-.11h-.07c-.13,0-.25.04-.37.11L.4,13.56c-.25.14-.4.41-.4.7v10.34c.01.14.09.28.21.35.12.08.28.08.4,0l3.96-2.27c.25-.15.4-.41.4-.7v-4.83c0-.29.15-.55.4-.7l1.69-.97c.13-.07.26-.11.4-.11s.28.04.4.11l1.69.97c.25.14.4.41.4.7v4.83c0,.29.15.55.4.7l3.96,2.27c.12.07.28.07.4,0,.12-.07.2-.2.2-.35v-10.33Zm31.48,5.38c0,.07-.04.14-.1.17l-2.29,1.32c-.06.04-.14.04-.2,0l-2.29-1.32c-.06-.04-.1-.1-.1-.17v-2.64c0-.07.04-.14.1-.17l2.29-1.32c.06-.04.14-.04.2,0l2.29,1.32c.06.04.1.1.1.17v2.64ZM47.04.05c-.13-.07-.28-.07-.4,0-.12.07-.2.2-.2.35v10.23c0,.1-.05.19-.14.24-.09.05-.19.05-.28,0l-1.67-.96c-.25-.14-.56-.14-.8,0l-6.67,3.85c-.25.14-.4.41-.4.7v7.7c0,.29.15.55.4.7l6.67,3.85c.25.14.56.14.81,0l6.67-3.85c.25-.14.4-.41.4-.7V2.97c0-.29-.16-.56-.41-.7L47.04.05Zm22.22,16.87c.25-.14.4-.41.4-.7v-1.87c0-.29-.15-.55-.4-.7l-6.63-3.85c-.25-.14-.56-.14-.81,0l-6.67,3.85c-.25.14-.4.41-.4.7v7.7c0,.29.16.56.41.7l6.63,3.78c.24.14.54.14.79,0l4.01-2.23c.13-.07.21-.2.21-.35s-.08-.28-.2-.35l-6.71-3.85c-.13-.07-.2-.2-.2-.35v-2.42c0-.14.08-.28.2-.35l2.09-1.2c.12-.07.28-.07.4,0l2.09,1.2c.12.07.2.2.2.35v1.9c0,.14.08.28.2.35.12.07.28.07.4,0l4-2.32Z" style="fill:#858585; fill-rule:evenodd;"/><path d="m62.12,16.56s.11-.03.15,0l1.28.74s.08.08.08.13v1.48c0,.06-.03.11-.08.13l-1.28.74s-.11.03-.15,0l-1.28-.74s-.08-.08-.08-.13v-1.48c0-.06.03-.11.08-.13l1.28-.74Z" style="fill:#858585; fill-rule:evenodd;"/><g><path d="m25.31,9.86l-6.63,3.83c-.25.14-.4.41-.4.69v7.66c0,.29.15.55.4.69l6.63,3.83c.25.14.55.14.8,0l6.63-3.83c.25-.14.4-.41.4-.69v-7.66c0-.29-.15-.55-.4-.69l-6.63-3.83c-.12-.07-.26-.11-.4-.11s-.28.04-.4.11" style="fill:#858585;"/><g style="clip-path:url(#clippath);"><path d="m39.85,13.03L21.15,3.87l-9.58,19.55,18.69,9.16,9.59-19.55Z" style="fill:#858585;"/></g></g><g><path d="m18.44,22.53c.06.08.14.15.24.21l5.69,3.29.95.54c.14.08.3.12.46.1.05,0,.11-.01.16-.03l7-12.81c-.05-.06-.12-.11-.19-.15l-4.34-2.51-2.3-1.32c-.07-.04-.14-.06-.21-.08l-7.46,12.76Z" style="fill:#858585;"/><g style="clip-path:url(#clippath-1);"><path d="m10.36,15.74l13.2,17.86,17.46-12.9L27.81,2.85,10.36,15.74Z" style="fill:#858585;"/></g></g><g><path d="m25.63,9.75c-.11.01-.22.05-.32.1l-6.61,3.82,7.13,12.99c.1-.01.2-.05.29-.1l6.63-3.83c.2-.12.34-.32.39-.55l-7.27-12.42c-.05-.01-.11-.02-.16-.02-.02,0-.04,0-.07,0" style="fill:#858585;"/><g style="clip-path:url(#clippath-2);"><path d="m18.69,9.75v16.92h14.44V9.75h-14.44Z" style="fill:#858585;"/></g></g></g></g></svg>