<svg width="800" height="800" viewBox="0 0 800 800" fill="none" xmlns="http://www.w3.org/2000/svg">
<path d="M737.675 469.325C735.564 463.181 731.758 457.759 726.698 453.685C721.637 449.611 715.528 447.051 709.075 446.3C701.451 445.383 693.724 445.815 686.25 447.575C674.689 450.129 662.928 451.676 651.1 452.2C682.73 398.835 706.889 341.383 722.9 281.45C746.725 189.225 734 147.225 719.125 128.2C699.371 103.209 674.09 83.1399 645.269 69.5709C616.448 56.002 584.873 49.3028 553.025 50C523.809 49.7263 494.715 53.8044 466.7 62.1C450.014 59.2393 433.128 57.7012 416.2 57.5C385.43 56.3318 354.953 63.8429 328.25 79.175C307.999 72.328 287.233 67.1113 266.15 63.575C241.573 57.6791 216.075 56.6846 191.113 60.6482C166.152 64.6119 142.216 73.456 120.675 86.675C77.3248 117.275 57.2248 170.475 60.9498 244.8C67.6193 300.248 79.3857 354.962 96.0998 408.25C105.726 441.535 118.396 473.863 133.95 504.825C145.437 533.07 167.273 555.863 195 568.55C205.163 571.899 216.037 572.468 226.494 570.2C236.952 567.932 246.612 562.908 254.475 555.65C258.043 559.875 262.263 563.504 266.975 566.4C274.278 570.932 282.239 574.306 290.575 576.4C317.861 584 346.906 582.24 373.075 571.4C373.225 575.675 373.35 579.775 373.425 583.325C373.575 589.05 373.75 594.675 373.95 599.95C373.653 627.836 377.366 655.62 384.975 682.45C385.375 683.525 385.9 685.125 386.45 686.85C390.841 703.271 399.371 718.292 411.225 730.475C425.436 743.525 444.19 750.497 463.475 749.9C471.689 749.848 479.876 748.935 487.9 747.175C503.111 745.265 517.785 740.328 531.057 732.655C544.329 724.982 555.93 714.729 565.175 702.5C585.45 673.625 595.325 630.15 597.1 561.625C597.325 559.675 597.55 557.825 597.75 556.075L598.175 552.45L602.95 552.875H604.175C631.21 554.02 658.176 549.348 683.25 539.175C699.025 531.85 749.6 505.15 737.675 469.175" fill="black"/>
<path d="M692.225 476.325C613.15 492.625 607.725 465.875 607.725 465.875C691.2 342 726.1 184.75 695.975 146.275C613.825 41.2751 471.6 90.9501 469.225 92.2251L468.45 92.3751C451.079 88.8887 433.417 87.0473 415.7 86.8751C385.822 85.376 356.338 94.2035 332.2 111.875C332.2 111.875 78.5001 7.35011 90.3001 243.325C92.8001 293.525 162.25 623.175 245.075 523.6C275.35 487.2 304.6 456.4 304.6 456.4C319.331 466.343 337.056 470.867 354.75 469.2L356.175 468C355.757 472.73 355.95 477.495 356.75 482.175C335.4 506.025 341.75 510.2 299.025 518.975C255.875 527.875 281.225 543.7 297.775 547.85C315.359 553.538 334.291 553.526 351.867 547.815C369.444 542.105 384.767 530.987 395.65 516.05L394.4 521.05C402.75 527.75 408.625 564.6 407.65 598.025C404.923 622.885 406.616 648.03 412.65 672.3C419.25 690.225 425.8 730.525 481.875 718.525C501.815 716.555 520.361 707.411 534.065 692.792C547.768 678.174 555.697 659.076 556.375 639.05C558.875 608.2 564.2 612.75 564.525 585.175L568.875 572.125C573.875 530.3 569.675 516.8 598.525 523.075L605.55 523.7C627.871 524.638 650.14 520.891 670.925 512.7C706.075 496.4 726.9 469.15 692.25 476.325" fill="#858585"/>
<path d="M347.05 265.775C341.315 264.568 335.338 265.455 330.2 268.275C329.531 268.757 328.965 269.368 328.535 270.072C328.106 270.776 327.822 271.559 327.7 272.375C327.701 275.258 328.739 278.045 330.625 280.225C333.979 284.832 338.989 287.959 344.6 288.95C345.346 289.053 346.098 289.103 346.85 289.1C350.564 289.148 354.204 288.054 357.276 285.966C360.348 283.878 362.704 280.896 364.025 277.425C364.9 271.225 355.875 267.075 347.125 265.85M583.175 266.05C582.5 261.175 573.825 259.8 565.675 261.05C557.525 262.3 549.5 265.9 550.175 270.775C551.446 273.833 553.599 276.444 556.36 278.274C559.12 280.104 562.363 281.07 565.675 281.05C566.37 281.049 567.063 280.999 567.75 280.9C572.086 280.139 576.049 277.968 579.025 274.725C581.514 272.539 583.034 269.455 583.25 266.15" fill="white"/>
<path d="M718.525 474.475C715.5 465.35 705.8 462.425 689.675 465.75C641.8 475.75 624.675 468.775 619.025 464.65C656.936 406.453 685.397 342.621 703.35 275.525C710.617 248.985 714.811 221.697 715.85 194.2C717.777 174.966 713.304 155.633 703.125 139.2C685.107 116.523 662.069 98.341 635.826 86.0853C609.584 73.8295 580.854 67.8353 551.9 68.5749C522.159 68.1095 492.56 72.7693 464.4 82.3499C448.294 78.3759 431.787 76.2538 415.2 76.0249C385.357 74.7136 355.86 82.8402 330.9 99.2499C308.682 91.1266 285.747 85.1166 262.4 81.2999C217.77 70.4997 170.682 77.7309 131.35 101.425C93.8499 128.025 76.3499 175.575 79.8249 242.75C86.3918 296.588 97.8816 349.71 114.15 401.45C140.9 489.075 169.975 538.7 200.575 548.95C204.531 550.282 208.676 550.966 212.85 550.975C220.618 550.494 228.174 548.249 234.945 544.411C241.715 540.573 247.522 535.243 251.925 528.825C269.292 507.992 287.25 487.675 305.8 467.875C317.725 474.329 330.996 477.899 344.55 478.3V479.35C342.217 482.117 339.942 484.933 337.725 487.8C328.35 499.675 326.425 502.15 296.275 508.375C287.7 510.15 264.925 514.85 264.6 530.875C264.25 548.375 291.525 555.65 294.6 556.425C304.803 559.049 315.29 560.409 325.825 560.475C348.866 560.9 371.207 552.553 388.325 537.125C385.769 584.702 388.967 632.414 397.85 679.225C401.954 694.211 410.839 707.447 423.153 716.923C435.467 726.399 450.537 731.596 466.075 731.725C473.783 731.701 481.468 730.863 489 729.225C509.567 727.449 528.821 718.38 543.289 703.655C557.757 688.931 566.486 669.52 567.9 648.925C572.325 623.275 579.925 562.05 583.5 529.2C592.535 531.683 601.883 532.837 611.25 532.625C632.824 532.781 654.22 528.704 674.225 520.625C692.025 512.35 724.225 492.1 718.3 474.475H718.525ZM601.275 252.5C600.955 261.781 599.985 271.029 598.375 280.175C596.516 290.923 595.347 301.778 594.875 312.675C594.79 324.97 595.626 337.254 597.375 349.425C602.775 374.335 600.785 400.28 591.65 424.075C589.71 420.634 587.982 417.077 586.475 413.425C585.025 409.9 581.85 404.225 577.5 396.4C560.5 365.9 520.65 294.45 541.05 265.3C547.125 256.625 562.55 247.8 601.25 252.5H601.275ZM554.35 88.2749C579.94 87.7517 605.302 93.1737 628.441 104.114C651.58 115.055 671.865 131.216 687.7 151.325C712.075 182.45 685.2 324.125 607.575 446.325L605.225 443.35L604.25 442.125C619.672 412.984 624.159 379.286 616.9 347.125C615.229 335.936 614.393 324.638 614.4 313.325C614.853 303.216 615.947 293.146 617.675 283.175C619.924 270.865 620.954 258.362 620.75 245.85C621.157 244.131 621.267 242.356 621.075 240.6C612.791 207.123 596.372 176.209 573.275 150.6C552.521 126.144 526.563 106.635 497.3 93.4999C516.04 89.5922 535.16 87.7977 554.3 88.1499L554.35 88.2749ZM236.975 516.35C221.3 535.2 210.45 531.6 206.975 530.4C183.775 522.65 156.825 473.6 133.1 395.8C117.347 345.581 106.135 294.049 99.5999 241.825C96.5999 181.825 111.15 139.975 142.85 117.475C194.425 80.8999 279.25 102.8 313.325 113.9C312.825 114.375 312.325 114.825 311.85 115.325C255.925 171.8 257.25 268.3 257.4 274.2C257.4 276.475 257.575 279.7 257.85 284.2C259.9 311.083 259.221 338.104 255.825 364.85C253.501 380.164 254.695 395.807 259.317 410.59C263.939 425.374 271.867 438.912 282.5 450.175C284.717 452.475 287.033 454.658 289.45 456.725C279.875 466.975 259.05 489.675 236.95 516.35H236.975ZM296.725 436.6C288.103 427.485 281.674 416.523 277.927 404.549C274.18 392.575 273.213 379.904 275.1 367.5C278.683 339.471 279.412 311.151 277.275 282.975C277.125 280.6 277 278.525 276.925 276.9C297.867 261.117 323.856 253.532 350 255.575C356.015 256.938 361.457 260.14 365.569 264.737C369.682 269.333 372.261 275.096 372.95 281.225C389.1 355.95 375.075 387.075 363.825 412.1C361.5 417.25 359.3 422.1 357.45 427.1L356 431C352.407 440.059 349.335 449.315 346.8 458.725C337.401 458.591 328.126 456.558 319.534 452.747C310.941 448.936 303.208 443.427 296.8 436.55L296.725 436.6ZM299.55 537.35C294.911 536.208 290.493 534.308 286.475 531.725C290.943 529.816 295.615 528.424 300.4 527.575C335.85 520.275 341.325 515.075 353.3 499.95C356.05 496.475 359.15 492.45 363.45 487.725C369.85 480.55 372.8 481.775 378.1 483.975C380.614 485.34 382.818 487.211 384.573 489.47C386.329 491.729 387.598 494.327 388.3 497.1C388.999 499.113 389.249 501.255 389.033 503.376C388.817 505.496 388.14 507.543 387.05 509.375C377.359 522.757 363.644 532.692 347.907 537.729C332.171 542.766 315.236 542.642 299.575 537.375L299.55 537.35ZM485.15 710C478.134 712.439 470.682 713.371 463.281 712.736C455.881 712.1 448.697 709.91 442.2 706.31C435.703 702.71 430.038 697.78 425.575 691.842C421.112 685.904 417.952 679.092 416.3 671.85C407.496 615.192 404.981 557.735 408.8 500.525C408.825 499.475 408.682 498.429 408.375 497.425C408.113 495.482 407.712 493.56 407.175 491.675C405.694 486.051 402.996 480.822 399.273 476.355C395.549 471.888 390.89 468.294 385.625 465.825C379.487 462.781 372.501 461.901 365.8 463.325C368.169 454.655 371.023 446.124 374.35 437.775L375.8 433.85C377.45 429.425 379.5 424.85 381.675 420C393.45 393.825 409.6 357.95 392.075 276.95C390.966 270.06 388.457 263.47 384.703 257.587C380.95 251.703 376.031 246.651 370.25 242.742C364.469 238.832 357.949 236.149 351.091 234.856C344.233 233.563 337.182 233.689 330.375 235.225C313.909 237.361 297.943 242.361 283.2 250C281.25 251 279.45 251.95 277.8 252.875C279.691 207.449 296.549 163.923 325.75 129.075C337.479 117.597 351.476 108.697 366.846 102.945C382.215 97.1933 398.617 94.717 415 95.6749C442.676 95.9152 469.963 102.225 494.934 114.161C519.906 126.096 541.955 143.365 559.525 164.75C576.672 184.773 590.07 207.723 599.075 232.5C562.5 228.775 537.625 236 525.025 254.025C497.525 293.225 540.025 369.325 560.425 405.9C564.175 412.6 567.4 418.4 568.4 420.9C573.787 433.477 581.044 445.167 589.925 455.575C591.85 458.075 593.725 460.3 595.125 462.35C584.05 465.55 564.15 472.925 565.975 509.85C564.525 528.35 554.125 614.975 548.825 645.6C541.85 686.025 526.975 701.1 485.125 710.075L485.15 710ZM666.2 502.8C650.809 508.906 634.474 512.289 617.925 512.8C606.914 514.422 595.669 512.977 585.425 508.625C584.3 485.65 592.925 483.25 601.925 480.7C603.35 480.3 604.725 479.9 606.075 479.45C606.957 480.162 607.875 480.83 608.825 481.45C624.8 492 653.325 493.125 693.575 484.825H694.025C685.705 492.223 676.294 498.294 666.125 502.825L666.2 502.8Z" fill="white"/>
</svg>
