<svg width="800" height="800" viewBox="0 0 800 800" fill="none" xmlns="http://www.w3.org/2000/svg">
<path fill-rule="evenodd" clip-rule="evenodd" d="M630.25 605.25L318.475 698.2C316.303 698.859 313.997 698.943 311.783 698.444C309.568 697.945 307.521 696.88 305.841 695.354C304.161 693.828 302.906 691.892 302.197 689.735C301.489 687.579 301.352 685.275 301.8 683.05L413.2 145.275C413.671 143.078 414.819 141.084 416.481 139.573C418.144 138.063 420.239 137.111 422.47 136.851C424.702 136.592 426.959 137.038 428.924 138.128C430.888 139.217 432.463 140.895 433.425 142.925L639.65 584.45C640.575 586.413 641.062 588.554 641.079 590.724C641.096 592.894 640.642 595.041 639.749 597.019C638.855 598.996 637.543 600.756 635.903 602.177C634.263 603.598 632.334 604.647 630.25 605.25ZM683.725 583.3L445 72.075C442.066 65.7695 437.469 60.3827 431.703 56.4933C425.937 52.604 419.221 50.3592 412.275 50.0001C405.329 49.5223 398.386 50.9711 392.21 54.1867C386.034 57.4024 380.866 62.2602 377.275 68.2251L118.4 491.2C114.451 497.603 112.397 504.993 112.477 512.515C112.556 520.037 114.766 527.383 118.85 533.7L245.45 731.425C250.22 738.814 257.256 744.459 265.504 747.515C273.751 750.571 282.767 750.872 291.2 748.375L658.7 638.8C664.25 637.183 669.384 634.383 673.749 630.591C678.113 626.799 681.603 622.107 683.979 616.837C686.355 611.566 687.561 605.844 687.512 600.063C687.464 594.282 686.164 588.58 683.7 583.35L683.725 583.3Z" fill="#858585"/>
</svg>
