<svg width="800" height="800" viewBox="0 0 800 800" fill="none" xmlns="http://www.w3.org/2000/svg">
<path d="M400 461.85C434.518 461.85 462.5 433.868 462.5 399.35C462.5 364.832 434.518 336.85 400 336.85C365.482 336.85 337.5 364.832 337.5 399.35C337.5 433.868 365.482 461.85 400 461.85Z" fill="#858585"/>
<path d="M400 542.65C324.878 544.467 249.945 534.341 178 512.65C144.766 502.115 113.768 485.518 86.575 463.7C76.1983 456.246 67.5568 446.636 61.2436 435.528C54.9303 424.421 51.0947 412.079 50 399.35C50 358.025 95.4 317.525 171.45 291.025C245.318 267.544 322.498 256.163 400 257.325C476.468 256.256 552.614 267.431 625.55 290.425C657.557 300.629 687.503 316.423 714 337.075C724.199 344.181 732.711 353.443 738.932 364.205C745.154 374.967 748.932 386.965 750 399.35C750 442.3 699.25 485.825 617.5 512.875C546.948 533.859 473.596 543.901 400 542.65ZM400 287.225C325.853 286.234 252.021 297.052 181.275 319.275C111.275 343.7 79.9 377.1 79.9 399.275C79.9 422.475 113.625 458.95 187.675 484.275C256.502 504.921 328.165 514.532 400 512.75C470.41 514.009 540.598 504.482 608.125 484.5C685 459.025 720 422.5 720 399.35C718.739 391.406 715.844 383.809 711.497 377.04C707.151 370.272 701.449 364.478 694.75 360.025C671.044 341.703 644.292 327.706 615.725 318.675C545.951 296.769 473.124 286.152 400 287.225Z" fill="#858585"/>
<path d="M258 711.075C246.338 711.343 234.813 708.513 224.6 702.875C188.8 682.225 176.4 622.675 191.425 543.55C207.991 467.827 236.695 395.282 276.425 328.725C313.693 261.953 361.405 201.573 417.75 149.875C442.579 127.243 471.222 109.189 502.35 96.5501C513.609 91.2735 525.891 88.5383 538.325 88.5383C550.759 88.5383 563.041 91.2735 574.3 96.5501C611.525 118 623.85 183.7 606.475 268.025C589.397 339.639 561.439 408.211 523.575 471.35C487.618 537.334 441.409 597.188 386.675 648.675C360.945 672.195 331.083 690.749 298.6 703.4C285.596 708.227 271.869 710.822 258 711.075ZM302.325 343.575C264.427 407.308 236.917 476.668 220.825 549.05C207 621.925 220.275 665.75 239.575 676.9C259.575 688.475 308.125 677.5 367.075 626C419.326 576.674 463.431 519.38 497.75 456.25C534.023 395.888 560.842 330.329 577.275 261.85C593.625 182.475 579.5 133.875 559.45 122.325C551.935 119.446 543.905 118.157 535.867 118.54C527.828 118.923 519.957 120.969 512.75 124.55C485.042 135.984 459.568 152.216 437.5 172.5C383.667 222.02 338.092 279.823 302.5 343.725L302.325 343.575Z" fill="#858585"/>
<path d="M541.925 711.4C508.05 711.4 465.025 690.9 420.225 652.375C362.893 600.207 314.375 539.11 276.55 471.45C237.318 405.809 208.842 334.314 192.2 259.675C184.983 226.837 183.645 192.98 188.25 159.675C189.315 147.32 193.077 135.349 199.271 124.607C205.465 113.864 213.941 104.611 224.1 97.5C261.275 75.975 324.35 98.1 388.725 155.25C442.24 205.805 487.685 264.268 523.475 328.6C562.683 392.709 591.458 462.638 608.725 535.775C616.253 569.818 617.414 604.96 612.15 639.425C610.898 652.135 606.911 664.424 600.465 675.449C594.018 686.475 585.263 695.975 574.8 703.3C564.754 708.868 553.408 711.663 541.925 711.4ZM302.425 456.4C338.711 521.061 385.057 579.534 439.725 629.625C495.95 678 540.55 688.4 559.725 677.125C579.725 665.5 594.475 618.05 579.275 541.275C562.622 471.448 535.022 404.698 497.5 343.5C463.346 281.928 419.969 225.946 368.875 177.5C308.275 123.7 259.125 111.675 239.1 123.275C232.859 128.347 227.737 134.658 224.058 141.81C220.379 148.961 218.222 156.798 217.725 164.825C213.75 194.527 215.045 224.698 221.55 253.95C237.558 325.328 264.869 393.69 302.45 456.45L302.425 456.4Z" fill="#858585"/>
</svg>
