<svg width="106" height="24" viewBox="0 0 106 24" fill="none" xmlns="http://www.w3.org/2000/svg">
<path d="M33.0001 23.7531V0.708088H34.2501V4.33309C34.3977 4.17235 34.534 4.00161 34.6581 3.82209C35.7021 1.65609 37.9041 0.289087 40.3081 0.316087C43.1581 0.231087 45.4741 1.28609 46.8351 3.82209C47.7011 5.39756 48.1777 7.15737 48.225 8.95457C48.2723 10.7518 47.889 12.5342 47.1071 14.1531C45.8391 16.9951 42.7071 18.4081 39.3541 17.8891C38.3106 17.8004 37.3059 17.4517 36.4318 16.8749C35.5577 16.2981 34.842 15.5116 34.3501 14.5871V23.7521L33.0001 23.7531ZM34.2501 8.86009L34.5301 11.5661C35.0241 14.6461 36.8451 16.4661 39.7041 16.8081C41.0467 17.0288 42.4243 16.7771 43.6021 16.0959C44.7799 15.4146 45.685 14.346 46.1631 13.0721C47.2751 10.4221 47.1931 7.42209 45.9431 4.83409C45.4328 3.69217 44.5647 2.74736 43.47 2.14245C42.3753 1.53754 41.1134 1.30539 39.8751 1.48109C38.7127 1.56565 37.6055 2.01012 36.7073 2.75275C35.8091 3.49539 35.1645 4.49932 34.8631 5.62509C34.5968 6.69043 34.3922 7.77022 34.2501 8.85909V8.86009ZM73.7481 11.9921C73.5585 13.6147 72.7861 15.1132 71.5744 16.2089C70.3628 17.3046 68.7945 17.923 67.1611 17.9491C61.9191 18.2131 59.4591 14.7321 59.0681 10.7151C58.7962 8.53365 59.1503 6.31987 60.0891 4.33209C60.7424 2.96848 61.813 1.84829 63.1456 1.13379C64.4782 0.419303 66.0037 0.147615 67.5011 0.358087C68.9245 0.479081 70.2739 1.04468 71.3582 1.97483C72.4425 2.90499 73.2069 4.1526 73.5431 5.54109C73.8094 6.80592 74.0053 8.08455 74.1301 9.37109H60.3631C60.1081 13.0131 62.0651 15.9411 64.8391 16.6471C68.2941 17.4971 71.2471 16.0001 72.3191 12.7151C72.5571 11.8721 72.9911 11.7531 73.7571 11.9921H73.7481ZM60.3531 8.20509H72.6671C72.5901 4.32509 70.1741 1.50509 66.8971 1.47309C63.1971 1.41309 60.5141 4.12009 60.3531 8.20509ZM76.2931 12.0771H77.5001C77.5444 12.9663 77.8332 13.8261 78.3346 14.5618C78.836 15.2975 79.5306 15.8807 80.3421 16.2471C81.3609 16.7056 82.4701 16.9284 83.587 16.899C84.7039 16.8696 85.7998 16.5886 86.7931 16.0771C87.3345 15.8333 87.7881 15.4292 88.0925 14.9193C88.3969 14.4094 88.5374 13.8184 88.4951 13.2261C88.5262 12.6549 88.3703 12.089 88.0508 11.6144C87.7314 11.1398 87.266 10.7823 86.7251 10.5961C85.3971 10.1021 83.9851 9.83009 82.6321 9.39609C81.2242 8.99525 79.8475 8.49191 78.5131 7.89009C76.3331 6.82609 76.1981 2.68209 78.6661 1.37009C79.9298 0.656998 81.3519 0.271696 82.8028 0.249338C84.2536 0.226979 85.687 0.568276 86.9721 1.24209C88.5661 2.12209 89.4471 3.89909 89.1851 5.70209H88.1501C88.1501 5.65209 88.0561 5.60809 88.0561 5.55709C87.9281 2.25709 85.1541 1.22509 82.1761 1.51509C81.2761 1.61509 80.4231 1.88709 79.6231 2.28909C79.1421 2.50871 78.7414 2.87237 78.4762 3.32975C78.2111 3.78714 78.0947 4.31562 78.1431 4.84209C78.1441 5.36894 78.3082 5.88255 78.613 6.31231C78.9178 6.74207 79.3482 7.06688 79.8451 7.24209C81.1451 7.71909 82.5251 8.02509 83.8701 8.39909L87.1201 9.24909C87.8587 9.49155 88.5064 9.95253 88.9775 10.5711C89.4485 11.1896 89.7207 11.9365 89.7581 12.7131C90.0181 14.4581 89.1281 16.1731 87.5541 16.9681C84.7121 18.5761 80.0311 18.1511 77.9461 16.1181C76.8791 15.0451 76.2841 13.5881 76.2961 12.0761L76.2931 12.0771ZM105.073 5.70309H103.941C103.941 5.55009 103.881 5.40309 103.864 5.28609C103.846 4.43756 103.537 3.62104 102.988 2.97343C102.44 2.32581 101.685 1.88648 100.851 1.72909C99.2778 1.27786 97.5996 1.35871 96.0771 1.95909C95.475 2.13138 94.9449 2.49392 94.566 2.9925C94.1871 3.49108 93.9798 4.0989 93.9751 4.72509C93.9535 5.33994 94.145 5.94338 94.517 6.43335C94.8891 6.92332 95.419 7.26976 96.0171 7.41409L101.191 8.74209C101.751 8.87628 102.302 9.04392 102.841 9.24409C104.491 9.84409 105.611 11.3761 105.661 13.1271C105.686 13.9842 105.451 14.8287 104.987 15.5497C104.523 16.2707 103.851 16.8346 103.061 17.1671C101.86 17.7126 100.559 18.0012 99.2397 18.0145C97.9208 18.0277 96.6137 17.7653 95.4021 17.2441C94.4057 16.8144 93.5648 16.0898 92.9927 15.1678C92.4206 14.2458 92.1446 13.1707 92.2021 12.0871H93.3081C93.7241 14.0921 95.1011 15.7621 96.9901 16.5521C98.8791 17.3421 101.036 17.1481 102.754 16.0361C103.27 15.768 103.697 15.3579 103.987 14.8542C104.277 14.3505 104.416 13.7744 104.388 13.1941C104.414 12.6225 104.252 12.0581 103.928 11.5865C103.604 11.115 103.135 10.762 102.592 10.5811C101.264 10.0871 99.8521 9.82409 98.4991 9.38109C97.0833 8.98642 95.6983 8.48876 94.3551 7.89209C92.2271 6.84509 92.0571 2.73509 94.4831 1.42409C95.7624 0.681071 97.2123 0.281903 98.6917 0.26543C100.171 0.248958 101.629 0.615742 102.925 1.33009C103.666 1.77234 104.263 2.42053 104.642 3.1957C105.021 3.97088 105.167 4.8396 105.061 5.69609L105.073 5.70309ZM30.9431 17.5331C30.4975 17.7016 30.0056 17.7011 29.5603 17.5318C29.115 17.3625 28.7471 17.0361 28.5261 16.6141L24.1261 10.5291L23.4881 9.67909L18.3821 16.6231C18.1739 17.0269 17.8259 17.3412 17.403 17.5072C16.9802 17.6732 16.5113 17.6795 16.0841 17.5251L22.6621 8.70009L16.5421 0.726087C17.4501 0.398087 18.4621 0.754088 18.9671 1.57609L23.5271 7.73609L28.1141 1.60009C28.3237 1.20317 28.6719 0.89716 29.0925 0.740253C29.5131 0.583346 29.9767 0.586491 30.3951 0.749088L28.0201 3.90009L24.8031 8.08709C24.7138 8.16682 24.6423 8.26451 24.5934 8.37377C24.5445 8.48303 24.5192 8.60138 24.5192 8.72109C24.5192 8.84079 24.5445 8.95915 24.5934 9.06841C24.6423 9.17766 24.7138 9.27535 24.8031 9.35509L30.9301 17.5331H30.9431ZM58.8731 0.641088V1.84109C58.0123 1.78463 57.1493 1.90928 56.3398 2.20698C55.5302 2.50468 54.792 2.96883 54.1729 3.56945C53.5538 4.17008 53.0676 4.89385 52.7455 5.69403C52.4234 6.49422 52.2727 7.35305 52.3031 8.21509C52.3031 11.0178 52.3031 13.8204 52.3031 16.6231V17.5761H51.0861V0.716087H52.2861V4.17109C53.7581 1.65109 56.0301 0.716088 58.8811 0.648088L58.8731 0.641088ZM0.333055 8.59009L0.869055 5.94309C2.34105 0.709088 8.34106 -1.46891 12.4691 1.77309C14.8861 3.67109 15.4891 6.36009 15.3711 9.39009H1.75405C1.53405 14.8021 5.43906 18.0701 10.4341 16.4021C12.0801 15.8021 13.3191 14.4341 13.7271 12.7341C13.9911 11.8841 14.4271 11.7381 15.2251 11.9841C15.092 13.0202 14.7257 14.0127 14.1538 14.8869C13.5818 15.761 12.8191 16.4941 11.9231 17.0311C10.4426 17.8407 8.74407 18.1615 7.07031 17.9476C5.39655 17.7337 3.83329 16.996 2.60405 15.8401C1.38805 14.4731 0.654055 12.7451 0.511055 10.9201C0.511055 10.6201 0.411055 10.3401 0.341055 10.0701C0.334388 9.56542 0.331055 9.07209 0.331055 8.59009H0.333055ZM1.77105 8.22409H14.0851C14.0081 4.30109 11.5321 1.51809 8.23005 1.49209C4.55405 1.44209 1.92405 4.16409 1.76205 8.20709L1.77105 8.22409Z" fill="#858585"/>
</svg>
